# xmcd CD database file
#
# Track frame offsets:
#	150
#	15867
#	34811
#	53371
#	68755
#	88187
#	104470
#	128391
#	153382
#	174910
#	194157
#	213372
#	232082
#	249454
#	265023
#	282089
#	307681
#
# Disc length: 4327 seconds
#
# Revision: 1
# Processed by: cddbd v1.5.2PL0 Copyright (c) Steve Scherf et al.
# Submitted via: CDex 1.51
#
DISCID=d610e511
DTITLE=Celine Dion - A New Day Has Come (826)
DYEAR=2002
DGENRE=Pop
TTITLE0=I'm Alive
TTITLE1=Right In Front Of You
TTITLE2=Have You Ever Been In Love
TTITLE3=Rain, Tax (It's Inevitable)
TTITLE4=A New Day Has Come
TTITLE5=Ten Days
TTITLE6=Goodbye's (The Saddest Word)
TTITLE7=Prayer
TTITLE8=I Surrender
TTITLE9=At Last
TTITLE10=Super Love
TTITLE11=Sorry For Love
TTITLE12=Aun Existe Amor
TTITLE13=The Greatest Reward
TTITLE14=When The Wrong One Loves You Right
TTITLE15=A New Day Has Come
TTITLE16=Nature Boy
EXTD=YEAR: 2002
EXTT0=
EXTT1=
EXTT2=
EXTT3=
EXTT4=
EXTT5=
EXTT6=
EXTT7=
EXTT8=
EXTT9=
EXTT10=
EXTT11=
EXTT12=
EXTT13=
EXTT14=
EXTT15=
EXTT16=
PLAYORDER=
